<svg xmlns="http://www.w3.org/2000/svg" xmlns:xlink="http://www.w3.org/1999/xlink" viewBox="0 0 1258.09 1041.71"><defs><style>.cls-1,.cls-10,.cls-11,.cls-12,.cls-13,.cls-14,.cls-15,.cls-16,.cls-17,.cls-18,.cls-19,.cls-20,.cls-21,.cls-22,.cls-23,.cls-24,.cls-25,.cls-26,.cls-27,.cls-28,.cls-29,.cls-30,.cls-31,.cls-32,.cls-33,.cls-34,.cls-35,.cls-36,.cls-37,.cls-38,.cls-39,.cls-40,.cls-41,.cls-42,.cls-43,.cls-44,.cls-45,.cls-51,.cls-52,.cls-53,.cls-54,.cls-55,.cls-56,.cls-57,.cls-58,.cls-59,.cls-60,.cls-61,.cls-62,.cls-63,.cls-64,.cls-65,.cls-66,.cls-67,.cls-68,.cls-69,.cls-70,.cls-71,.cls-72,.cls-73,.cls-74,.cls-75,.cls-76,.cls-77,.cls-78,.cls-79,.cls-80,.cls-81,.cls-82,.cls-83,.cls-84,.cls-85,.cls-86{fill:none;}.cls-2{isolation:isolate;}.cls-3{clip-path:url(#clip-path);}.cls-4{opacity:0.67;}.cls-10,.cls-11,.cls-12,.cls-13,.cls-14,.cls-15,.cls-16,.cls-17,.cls-18,.cls-19,.cls-20,.cls-21,.cls-22,.cls-23,.cls-24,.cls-25,.cls-26,.cls-27,.cls-28,.cls-29,.cls-30,.cls-31,.cls-32,.cls-33,.cls-34,.cls-35,.cls-36,.cls-37,.cls-38,.cls-39,.cls-40,.cls-41,.cls-42,.cls-43,.cls-44,.cls-45,.cls-46,.cls-47,.cls-48,.cls-49,.cls-5,.cls-50,.cls-51,.cls-52,.cls-53,.cls-54,.cls-55,.cls-56,.cls-57,.cls-58,.cls-59,.cls-6,.cls-60,.cls-61,.cls-62,.cls-63,.cls-64,.cls-65,.cls-66,.cls-67,.cls-68,.cls-69,.cls-7,.cls-70,.cls-71,.cls-72,.cls-73,.cls-74,.cls-75,.cls-76,.cls-77,.cls-78,.cls-79,.cls-8,.cls-80,.cls-81,.cls-82,.cls-83,.cls-84,.cls-85,.cls-86,.cls-9{mix-blend-mode:multiply;}.cls-5{fill:url(#Degradado_sin_nombre_213);}.cls-6{fill:url(#Degradado_sin_nombre_213-2);}.cls-7{fill:url(#Degradado_sin_nombre_213-3);}.cls-8{fill:url(#Degradado_sin_nombre_213-4);}.cls-50,.cls-9{opacity:0.51;}.cls-9{fill:url(#Degradado_sin_nombre_213-5);}.cls-10,.cls-11,.cls-12,.cls-13,.cls-14,.cls-15,.cls-16,.cls-17,.cls-18,.cls-19,.cls-20,.cls-21,.cls-22,.cls-23,.cls-24,.cls-25,.cls-26,.cls-27,.cls-28,.cls-29,.cls-30,.cls-31,.cls-32,.cls-33,.cls-34,.cls-35,.cls-36,.cls-37,.cls-38,.cls-39,.cls-40,.cls-41,.cls-42,.cls-43,.cls-44,.cls-45,.cls-51,.cls-52,.cls-53,.cls-54,.cls-55,.cls-56,.cls-57,.cls-58,.cls-59,.cls-60,.cls-61,.cls-62,.cls-63,.cls-64,.cls-65,.cls-66,.cls-67,.cls-68,.cls-69,.cls-70,.cls-71,.cls-72,.cls-73,.cls-74,.cls-75,.cls-76,.cls-77,.cls-78,.cls-79,.cls-80,.cls-81,.cls-82,.cls-83,.cls-84,.cls-85,.cls-86{stroke-miterlimit:10;}.cls-10{stroke:url(#Degradado_sin_nombre_213-6);}.cls-11{stroke:url(#Degradado_sin_nombre_213-7);}.cls-12{stroke:url(#Degradado_sin_nombre_213-8);}.cls-13{stroke:url(#Degradado_sin_nombre_213-9);}.cls-14{stroke:url(#Degradado_sin_nombre_213-10);}.cls-15{stroke:url(#Degradado_sin_nombre_213-11);}.cls-16{stroke:url(#Degradado_sin_nombre_213-12);}.cls-17{stroke:url(#Degradado_sin_nombre_213-13);}.cls-18{stroke:url(#Degradado_sin_nombre_213-14);}.cls-19{stroke:url(#Degradado_sin_nombre_213-15);}.cls-20{stroke:url(#Degradado_sin_nombre_213-16);}.cls-21{stroke:url(#Degradado_sin_nombre_213-17);}.cls-22{stroke:url(#Degradado_sin_nombre_213-18);}.cls-23{stroke:url(#Degradado_sin_nombre_213-19);}.cls-24{stroke:url(#Degradado_sin_nombre_213-20);}.cls-25{stroke:url(#Degradado_sin_nombre_213-21);}.cls-26{stroke:url(#Degradado_sin_nombre_213-22);}.cls-27{stroke:url(#Degradado_sin_nombre_213-23);}.cls-28{stroke:url(#Degradado_sin_nombre_216);}.cls-29{stroke:url(#Degradado_sin_nombre_216-2);}.cls-30{stroke:url(#Degradado_sin_nombre_216-3);}.cls-31{stroke:url(#Degradado_sin_nombre_216-4);}.cls-32{stroke:url(#Degradado_sin_nombre_216-5);}.cls-33{stroke:url(#Degradado_sin_nombre_216-6);}.cls-34{stroke:url(#Degradado_sin_nombre_216-7);}.cls-35{stroke:url(#Degradado_sin_nombre_216-8);}.cls-36{stroke:url(#Degradado_sin_nombre_216-9);}.cls-37{stroke:url(#Degradado_sin_nombre_216-10);}.cls-38{stroke:url(#Degradado_sin_nombre_216-11);}.cls-39{stroke:url(#Degradado_sin_nombre_216-12);}.cls-40{stroke:url(#Degradado_sin_nombre_216-13);}.cls-41{stroke:url(#Degradado_sin_nombre_216-14);}.cls-42{stroke:url(#Degradado_sin_nombre_216-15);}.cls-43{stroke:url(#Degradado_sin_nombre_216-16);}.cls-44{stroke:url(#Degradado_sin_nombre_216-17);}.cls-45{stroke:url(#Degradado_sin_nombre_216-18);}.cls-46{fill:url(#Degradado_sin_nombre_213-24);}.cls-47{fill:url(#Degradado_sin_nombre_213-25);}.cls-48{fill:url(#Degradado_sin_nombre_213-26);}.cls-49{fill:url(#Degradado_sin_nombre_213-27);}.cls-50{fill:url(#Degradado_sin_nombre_213-28);}.cls-51{stroke:url(#Degradado_sin_nombre_213-29);}.cls-52{stroke:url(#Degradado_sin_nombre_213-30);}.cls-53{stroke:url(#Degradado_sin_nombre_213-31);}.cls-54{stroke:url(#Degradado_sin_nombre_213-32);}.cls-55{stroke:url(#Degradado_sin_nombre_213-33);}.cls-56{stroke:url(#Degradado_sin_nombre_213-34);}.cls-57{stroke:url(#Degradado_sin_nombre_213-35);}.cls-58{stroke:url(#Degradado_sin_nombre_213-36);}.cls-59{stroke:url(#Degradado_sin_nombre_213-37);}.cls-60{stroke:url(#Degradado_sin_nombre_213-38);}.cls-61{stroke:url(#Degradado_sin_nombre_213-39);}.cls-62{stroke:url(#Degradado_sin_nombre_213-40);}.cls-63{stroke:url(#Degradado_sin_nombre_213-41);}.cls-64{stroke:url(#Degradado_sin_nombre_213-42);}.cls-65{stroke:url(#Degradado_sin_nombre_213-43);}.cls-66{stroke:url(#Degradado_sin_nombre_213-44);}.cls-67{stroke:url(#Degradado_sin_nombre_213-45);}.cls-68{stroke:url(#Degradado_sin_nombre_213-46);}.cls-69{stroke:url(#Degradado_sin_nombre_216-19);}.cls-70{stroke:url(#Degradado_sin_nombre_216-20);}.cls-71{stroke:url(#Degradado_sin_nombre_216-21);}.cls-72{stroke:url(#Degradado_sin_nombre_216-22);}.cls-73{stroke:url(#Degradado_sin_nombre_216-23);}.cls-74{stroke:url(#Degradado_sin_nombre_216-24);}.cls-75{stroke:url(#Degradado_sin_nombre_216-25);}.cls-76{stroke:url(#Degradado_sin_nombre_216-26);}.cls-77{stroke:url(#Degradado_sin_nombre_216-27);}.cls-78{stroke:url(#Degradado_sin_nombre_216-28);}.cls-79{stroke:url(#Degradado_sin_nombre_216-29);}.cls-80{stroke:url(#Degradado_sin_nombre_216-30);}.cls-81{stroke:url(#Degradado_sin_nombre_216-31);}.cls-82{stroke:url(#Degradado_sin_nombre_216-32);}.cls-83{stroke:url(#Degradado_sin_nombre_216-33);}.cls-84{stroke:url(#Degradado_sin_nombre_216-34);}.cls-85{stroke:url(#Degradado_sin_nombre_216-35);}.cls-86{stroke:url(#Degradado_sin_nombre_216-36);}</style><clipPath id="clip-path" transform="translate(254.97 274.6)"><rect class="cls-1" width="750" height="500"/></clipPath><linearGradient id="Degradado_sin_nombre_213" x1="351.36" y1="86.73" x2="421.2" y2="227.43" gradientTransform="matrix(0.98, 0.21, -0.21, 0.98, 20.81, -86.09)" gradientUnits="userSpaceOnUse"><stop offset="0" stop-color="#fff"/><stop offset="1" stop-color="#e8e8e8"/></linearGradient><linearGradient id="Degradado_sin_nombre_213-2" x1="-14.63" y1="-131.88" x2="669.05" y2="321.41" xlink:href="#Degradado_sin_nombre_213"/><linearGradient id="Degradado_sin_nombre_213-3" x1="362.99" y1="47.88" x2="461.34" y2="199.97" xlink:href="#Degradado_sin_nombre_213"/><linearGradient id="Degradado_sin_nombre_213-4" x1="-44.56" y1="230.66" x2="517.12" y2="-270.31" xlink:href="#Degradado_sin_nombre_213"/><linearGradient id="Degradado_sin_nombre_213-5" x1="-38.55" y1="162.12" x2="344.98" y2="-167.77" xlink:href="#Degradado_sin_nombre_213"/><linearGradient id="Degradado_sin_nombre_213-6" x1="-16.95" y1="424.93" x2="598.08" y2="-123.61" xlink:href="#Degradado_sin_nombre_213"/><linearGradient id="Degradado_sin_nombre_213-7" x1="-16.61" y1="427.75" x2="604.64" y2="-126.34" xlink:href="#Degradado_sin_nombre_213"/><linearGradient id="Degradado_sin_nombre_213-8" x1="-16.19" y1="430.65" x2="611.3" y2="-129" xlink:href="#Degradado_sin_nombre_213"/><linearGradient id="Degradado_sin_nombre_213-9" x1="-15.62" y1="433.71" x2="618.11" y2="-131.5" xlink:href="#Degradado_sin_nombre_213"/><linearGradient id="Degradado_sin_nombre_213-10" x1="-14.9" y1="436.96" x2="625.07" y2="-133.83" xlink:href="#Degradado_sin_nombre_213"/><linearGradient id="Degradado_sin_nombre_213-11" x1="-13.99" y1="440.4" x2="632.22" y2="-135.95" xlink:href="#Degradado_sin_nombre_213"/><linearGradient id="Degradado_sin_nombre_213-12" x1="-12.88" y1="444.08" x2="639.57" y2="-137.83" xlink:href="#Degradado_sin_nombre_213"/><linearGradient id="Degradado_sin_nombre_213-13" x1="-11.53" y1="448.02" x2="647.16" y2="-139.46" xlink:href="#Degradado_sin_nombre_213"/><linearGradient id="Degradado_sin_nombre_213-14" x1="-9.92" y1="452.26" x2="655.01" y2="-140.79" xlink:href="#Degradado_sin_nombre_213"/><linearGradient id="Degradado_sin_nombre_213-15" x1="-9.04" y1="455.67" x2="662.13" y2="-142.94" xlink:href="#Degradado_sin_nombre_213"/><linearGradient id="Degradado_sin_nombre_213-16" x1="-9.51" y1="457.57" x2="667.89" y2="-146.6" xlink:href="#Degradado_sin_nombre_213"/><linearGradient id="Degradado_sin_nombre_213-17" x1="-9.65" y1="459.84" x2="674" y2="-149.89" xlink:href="#Degradado_sin_nombre_213"/><linearGradient id="Degradado_sin_nombre_213-18" x1="-9.44" y1="462.5" x2="680.43" y2="-152.8" xlink:href="#Degradado_sin_nombre_213"/><linearGradient id="Degradado_sin_nombre_213-19" x1="-8.91" y1="465.53" x2="687.21" y2="-155.33" xlink:href="#Degradado_sin_nombre_213"/><linearGradient id="Degradado_sin_nombre_213-20" x1="-8.05" y1="468.91" x2="694.29" y2="-157.51" xlink:href="#Degradado_sin_nombre_213"/><linearGradient id="Degradado_sin_nombre_213-21" x1="-6.91" y1="472.61" x2="701.66" y2="-159.37" xlink:href="#Degradado_sin_nombre_213"/><linearGradient id="Degradado_sin_nombre_213-22" x1="-5.53" y1="476.59" x2="709.28" y2="-160.94" xlink:href="#Degradado_sin_nombre_213"/><linearGradient id="Degradado_sin_nombre_213-23" x1="-3.95" y1="480.78" x2="717.09" y2="-162.31" xlink:href="#Degradado_sin_nombre_213"/><linearGradient id="Degradado_sin_nombre_216" x1="-157.07" y1="526.09" x2="519.41" y2="-77.26" gradientTransform="matrix(-0.98, -0.21, 0.21, -0.98, 632.54, 135.08)" gradientUnits="userSpaceOnUse"><stop offset="0" stop-color="#fff" stop-opacity="0"/><stop offset="1" stop-color="#e6e6e6"/></linearGradient><linearGradient id="Degradado_sin_nombre_216-2" x1="-156.56" y1="529.21" x2="526.35" y2="-79.88" xlink:href="#Degradado_sin_nombre_216"/><linearGradient id="Degradado_sin_nombre_216-3" x1="-156.06" y1="532.32" x2="533.29" y2="-82.5" xlink:href="#Degradado_sin_nombre_216"/><linearGradient id="Degradado_sin_nombre_216-4" x1="-155.5" y1="535.5" x2="540.32" y2="-85.09" xlink:href="#Degradado_sin_nombre_216"/><linearGradient id="Degradado_sin_nombre_216-5" x1="-154.79" y1="538.85" x2="547.5" y2="-87.52" xlink:href="#Degradado_sin_nombre_216"/><linearGradient id="Degradado_sin_nombre_216-6" x1="-153.91" y1="542.39" x2="554.86" y2="-89.75" xlink:href="#Degradado_sin_nombre_216"/><linearGradient id="Degradado_sin_nombre_216-7" x1="-152.92" y1="546.04" x2="562.31" y2="-91.87" xlink:href="#Degradado_sin_nombre_216"/><linearGradient id="Degradado_sin_nombre_216-8" x1="-154.48" y1="546.84" x2="567.23" y2="-96.84" xlink:href="#Degradado_sin_nombre_216"/><linearGradient id="Degradado_sin_nombre_216-9" x1="-155.78" y1="547.94" x2="572.4" y2="-101.52" xlink:href="#Degradado_sin_nombre_216"/><linearGradient id="Degradado_sin_nombre_216-10" x1="-156.8" y1="549.34" x2="577.85" y2="-105.88" xlink:href="#Degradado_sin_nombre_216"/><linearGradient id="Degradado_sin_nombre_216-11" x1="-157.51" y1="551.1" x2="583.61" y2="-109.9" xlink:href="#Degradado_sin_nombre_216"/><linearGradient id="Degradado_sin_nombre_216-12" x1="-157.89" y1="553.22" x2="589.7" y2="-113.55" xlink:href="#Degradado_sin_nombre_216"/><linearGradient id="Degradado_sin_nombre_216-13" x1="-157.92" y1="555.72" x2="596.14" y2="-116.81" xlink:href="#Degradado_sin_nombre_216"/><linearGradient id="Degradado_sin_nombre_216-14" x1="-157.62" y1="558.61" x2="602.91" y2="-119.7" xlink:href="#Degradado_sin_nombre_216"/><linearGradient id="Degradado_sin_nombre_216-15" x1="-156.98" y1="561.87" x2="610.01" y2="-122.2" xlink:href="#Degradado_sin_nombre_216"/><linearGradient id="Degradado_sin_nombre_216-16" x1="-156.04" y1="565.47" x2="617.42" y2="-124.37" xlink:href="#Degradado_sin_nombre_216"/><linearGradient id="Degradado_sin_nombre_216-17" x1="-154.81" y1="569.39" x2="625.11" y2="-126.21" xlink:href="#Degradado_sin_nombre_216"/><linearGradient id="Degradado_sin_nombre_216-18" x1="-153.34" y1="573.59" x2="633.04" y2="-127.78" xlink:href="#Degradado_sin_nombre_216"/><linearGradient id="Degradado_sin_nombre_213-24" x1="510.6" y1="410.29" x2="580.45" y2="551" gradientTransform="matrix(-0.98, -0.21, 0.21, -0.98, 815.2, 928.37)" xlink:href="#Degradado_sin_nombre_213"/><linearGradient id="Degradado_sin_nombre_213-25" x1="144.62" y1="191.68" x2="828.29" y2="644.98" gradientTransform="matrix(-0.98, -0.21, 0.21, -0.98, 815.2, 928.37)" xlink:href="#Degradado_sin_nombre_213"/><linearGradient id="Degradado_sin_nombre_213-26" x1="522.23" y1="371.45" x2="620.58" y2="523.54" gradientTransform="matrix(-0.98, -0.21, 0.21, -0.98, 815.2, 928.37)" xlink:href="#Degradado_sin_nombre_213"/><linearGradient id="Degradado_sin_nombre_213-27" x1="114.68" y1="554.22" x2="676.37" y2="53.26" gradientTransform="matrix(-0.98, -0.21, 0.21, -0.98, 815.2, 928.37)" xlink:href="#Degradado_sin_nombre_213"/><linearGradient id="Degradado_sin_nombre_213-28" x1="120.69" y1="485.69" x2="504.22" y2="155.79" gradientTransform="matrix(-0.98, -0.21, 0.21, -0.98, 815.2, 928.37)" xlink:href="#Degradado_sin_nombre_213"/><linearGradient id="Degradado_sin_nombre_213-29" x1="142.29" y1="748.5" x2="757.33" y2="199.95" gradientTransform="matrix(-0.98, -0.21, 0.21, -0.98, 815.2, 928.37)" xlink:href="#Degradado_sin_nombre_213"/><linearGradient id="Degradado_sin_nombre_213-30" x1="142.64" y1="751.31" x2="763.88" y2="197.23" gradientTransform="matrix(-0.98, -0.21, 0.21, -0.98, 815.2, 928.37)" xlink:href="#Degradado_sin_nombre_213"/><linearGradient id="Degradado_sin_nombre_213-31" x1="143.06" y1="754.22" x2="770.55" y2="194.57" gradientTransform="matrix(-0.98, -0.21, 0.21, -0.98, 815.2, 928.37)" xlink:href="#Degradado_sin_nombre_213"/><linearGradient id="Degradado_sin_nombre_213-32" x1="143.62" y1="757.28" x2="777.35" y2="192.06" gradientTransform="matrix(-0.98, -0.21, 0.21, -0.98, 815.2, 928.37)" xlink:href="#Degradado_sin_nombre_213"/><linearGradient id="Degradado_sin_nombre_213-33" x1="144.35" y1="760.52" x2="784.32" y2="189.74" gradientTransform="matrix(-0.98, -0.21, 0.21, -0.98, 815.2, 928.37)" xlink:href="#Degradado_sin_nombre_213"/><linearGradient id="Degradado_sin_nombre_213-34" x1="145.25" y1="763.97" x2="791.46" y2="187.62" gradientTransform="matrix(-0.98, -0.21, 0.21, -0.98, 815.2, 928.37)" xlink:href="#Degradado_sin_nombre_213"/><linearGradient id="Degradado_sin_nombre_213-35" x1="146.37" y1="767.65" x2="798.82" y2="185.73" gradientTransform="matrix(-0.98, -0.21, 0.21, -0.98, 815.2, 928.37)" xlink:href="#Degradado_sin_nombre_213"/><linearGradient id="Degradado_sin_nombre_213-36" x1="147.72" y1="771.59" x2="806.41" y2="184.11" gradientTransform="matrix(-0.98, -0.21, 0.21, -0.98, 815.2, 928.37)" xlink:href="#Degradado_sin_nombre_213"/><linearGradient id="Degradado_sin_nombre_213-37" x1="149.33" y1="775.82" x2="814.26" y2="182.78" gradientTransform="matrix(-0.98, -0.21, 0.21, -0.98, 815.2, 928.37)" xlink:href="#Degradado_sin_nombre_213"/><linearGradient id="Degradado_sin_nombre_213-38" x1="150.2" y1="779.23" x2="821.37" y2="180.62" gradientTransform="matrix(-0.98, -0.21, 0.21, -0.98, 815.2, 928.37)" xlink:href="#Degradado_sin_nombre_213"/><linearGradient id="Degradado_sin_nombre_213-39" x1="149.73" y1="781.13" x2="827.14" y2="176.96" gradientTransform="matrix(-0.98, -0.21, 0.21, -0.98, 815.2, 928.37)" xlink:href="#Degradado_sin_nombre_213"/><linearGradient id="Degradado_sin_nombre_213-40" x1="149.6" y1="783.41" x2="833.24" y2="173.67" gradientTransform="matrix(-0.98, -0.21, 0.21, -0.98, 815.2, 928.37)" xlink:href="#Degradado_sin_nombre_213"/><linearGradient id="Degradado_sin_nombre_213-41" x1="149.8" y1="786.06" x2="839.68" y2="170.77" gradientTransform="matrix(-0.98, -0.21, 0.21, -0.98, 815.2, 928.37)" xlink:href="#Degradado_sin_nombre_213"/><linearGradient id="Degradado_sin_nombre_213-42" x1="150.34" y1="789.09" x2="846.45" y2="168.23" gradientTransform="matrix(-0.98, -0.21, 0.21, -0.98, 815.2, 928.37)" xlink:href="#Degradado_sin_nombre_213"/><linearGradient id="Degradado_sin_nombre_213-43" x1="151.19" y1="792.47" x2="853.54" y2="166.05" gradientTransform="matrix(-0.98, -0.21, 0.21, -0.98, 815.2, 928.37)" xlink:href="#Degradado_sin_nombre_213"/><linearGradient id="Degradado_sin_nombre_213-44" x1="152.33" y1="796.17" x2="860.91" y2="164.2" gradientTransform="matrix(-0.98, -0.21, 0.21, -0.98, 815.2, 928.37)" xlink:href="#Degradado_sin_nombre_213"/><linearGradient id="Degradado_sin_nombre_213-45" x1="153.72" y1="800.16" x2="868.53" y2="162.62" gradientTransform="matrix(-0.98, -0.21, 0.21, -0.98, 815.2, 928.37)" xlink:href="#Degradado_sin_nombre_213"/><linearGradient id="Degradado_sin_nombre_213-46" x1="155.29" y1="804.35" x2="876.33" y2="161.26" gradientTransform="matrix(-0.98, -0.21, 0.21, -0.98, 815.2, 928.37)" xlink:href="#Degradado_sin_nombre_213"/><linearGradient id="Degradado_sin_nombre_216-19" x1="-316.32" y1="202.52" x2="360.16" y2="-400.82" gradientTransform="matrix(0.98, 0.21, -0.21, 0.98, 203.48, 707.2)" xlink:href="#Degradado_sin_nombre_216"/><linearGradient id="Degradado_sin_nombre_216-20" x1="-315.81" y1="205.64" x2="367.11" y2="-403.44" gradientTransform="matrix(0.98, 0.21, -0.21, 0.98, 203.48, 707.2)" xlink:href="#Degradado_sin_nombre_216"/><linearGradient id="Degradado_sin_nombre_216-21" x1="-315.3" y1="208.76" x2="374.05" y2="-406.07" gradientTransform="matrix(0.98, 0.21, -0.21, 0.98, 203.48, 707.2)" xlink:href="#Degradado_sin_nombre_216"/><linearGradient id="Degradado_sin_nombre_216-22" x1="-314.75" y1="211.93" x2="381.07" y2="-408.66" gradientTransform="matrix(0.98, 0.21, -0.21, 0.98, 203.48, 707.2)" xlink:href="#Degradado_sin_nombre_216"/><linearGradient id="Degradado_sin_nombre_216-23" x1="-314.04" y1="215.28" x2="388.25" y2="-411.09" gradientTransform="matrix(0.98, 0.21, -0.21, 0.98, 203.48, 707.2)" xlink:href="#Degradado_sin_nombre_216"/><linearGradient id="Degradado_sin_nombre_216-24" x1="-313.15" y1="218.82" x2="395.61" y2="-413.32" gradientTransform="matrix(0.98, 0.21, -0.21, 0.98, 203.48, 707.2)" xlink:href="#Degradado_sin_nombre_216"/><linearGradient id="Degradado_sin_nombre_216-25" x1="-312.17" y1="222.47" x2="403.07" y2="-415.44" gradientTransform="matrix(0.98, 0.21, -0.21, 0.98, 203.48, 707.2)" xlink:href="#Degradado_sin_nombre_216"/><linearGradient id="Degradado_sin_nombre_216-26" x1="-313.72" y1="223.28" x2="407.98" y2="-420.4" gradientTransform="matrix(0.98, 0.21, -0.21, 0.98, 203.48, 707.2)" xlink:href="#Degradado_sin_nombre_216"/><linearGradient id="Degradado_sin_nombre_216-27" x1="-315.02" y1="224.37" x2="413.15" y2="-425.09" gradientTransform="matrix(0.98, 0.21, -0.21, 0.98, 203.48, 707.2)" xlink:href="#Degradado_sin_nombre_216"/><linearGradient id="Degradado_sin_nombre_216-28" x1="-316.04" y1="225.78" x2="418.61" y2="-429.45" gradientTransform="matrix(0.98, 0.21, -0.21, 0.98, 203.48, 707.2)" xlink:href="#Degradado_sin_nombre_216"/><linearGradient id="Degradado_sin_nombre_216-29" x1="-316.75" y1="227.53" x2="424.37" y2="-433.47" gradientTransform="matrix(0.98, 0.21, -0.21, 0.98, 203.48, 707.2)" xlink:href="#Degradado_sin_nombre_216"/><linearGradient id="Degradado_sin_nombre_216-30" x1="-317.13" y1="229.65" x2="430.46" y2="-437.11" gradientTransform="matrix(0.98, 0.21, -0.21, 0.98, 203.48, 707.2)" xlink:href="#Degradado_sin_nombre_216"/><linearGradient id="Degradado_sin_nombre_216-31" x1="-317.17" y1="232.16" x2="436.89" y2="-440.38" gradientTransform="matrix(0.98, 0.21, -0.21, 0.98, 203.48, 707.2)" xlink:href="#Degradado_sin_nombre_216"/><linearGradient id="Degradado_sin_nombre_216-32" x1="-316.86" y1="235.05" x2="443.66" y2="-443.26" gradientTransform="matrix(0.98, 0.21, -0.21, 0.98, 203.48, 707.2)" xlink:href="#Degradado_sin_nombre_216"/><linearGradient id="Degradado_sin_nombre_216-33" x1="-316.23" y1="238.3" x2="450.76" y2="-445.77" gradientTransform="matrix(0.98, 0.21, -0.21, 0.98, 203.48, 707.2)" xlink:href="#Degradado_sin_nombre_216"/><linearGradient id="Degradado_sin_nombre_216-34" x1="-315.28" y1="241.91" x2="458.17" y2="-447.93" gradientTransform="matrix(0.98, 0.21, -0.21, 0.98, 203.48, 707.2)" xlink:href="#Degradado_sin_nombre_216"/><linearGradient id="Degradado_sin_nombre_216-35" x1="-314.06" y1="245.83" x2="465.86" y2="-449.78" gradientTransform="matrix(0.98, 0.21, -0.21, 0.98, 203.48, 707.2)" xlink:href="#Degradado_sin_nombre_216"/><linearGradient id="Degradado_sin_nombre_216-36" x1="-312.59" y1="250.02" x2="473.8" y2="-451.35" gradientTransform="matrix(0.98, 0.21, -0.21, 0.98, 203.48, 707.2)" xlink:href="#Degradado_sin_nombre_216"/></defs><g class="cls-2"><g id="Capa_2" data-name="Capa 2"><g id="OBJECTS"><g class="cls-3"><g class="cls-4"><path class="cls-5" d="M614.86,103.26c-153.09,18.38-308.25-65.58-459.2-35-75.8,15.38-142.2,58.3-206.4,100.54-18.8,12.38-45.08,24.49-62.18,9.68-11.83-10.25-11.88-28-10.75-43.42A1424.14,1424.14,0,0,1-101-33.91c11.51-58.83,29.86-121.7,78.89-157,47.88-34.49,112.66-33.82,172-28.66C353.31-201.89,551.85-148.48,747.76-91c19.6,5.75,40.69,12.58,52.45,29.07,11.18,15.67,11.1,37,4.58,54.91C778.64,65,685.21,94.81,614.86,103.26Z" transform="translate(254.97 274.6)"/><path class="cls-6" d="M771.22-57.64A135.5,135.5,0,0,1,800.86,7.1a111.9,111.9,0,0,1-1.26,44.24A91.58,91.58,0,0,1,792,71.79a99.2,99.2,0,0,1-5.68,9.44c-2.18,3.25-2.56,7.24-5.09,10.36-2.12,2.62-4.32,2.53-7.15,3.56-2.55.92-5.08,2.86-7.55,4.07A143.92,143.92,0,0,1,750.25,106a174.31,174.31,0,0,1-34.94,8c-32.93,4.16-66.63.56-98.85-6.81-83.21-19-160.3-58.29-242.16-82.41S199.31-6.8,126.06,35.6C78.49,63.14,44.91,108.29,8.47,149a854.45,854.45,0,0,1-67,67c-10.84,9.7-24,19.76-38.56,17.64-22.47-3.26-30.13-31.09-31.72-53.35a782.75,782.75,0,0,1,3.55-148.71c6.89-57.48,21.74-117.15,62.14-159,38.44-39.82,94.89-58,150.29-65.87,94.67-13.51,191.16-1.38,286.22,10.74,87.31,11.14,175.07,22.37,259.53,47.13C684.51-120.26,736.88-98.56,771.22-57.64Z" transform="translate(254.97 274.6)"/><path class="cls-7" d="M589.56,50.65c-81.51-11.19-150.4-65.16-229-89.36C262.62-68.84,148.89-47.8,73.76,20,51.15,40.41,31.9,64.71,6.37,81.46S-54.12,106.1-80.58,90.4c-20.25-12-31.07-35-36.33-57.67C-137.25-54.84-88.06-147.36-14.34-199.59S153-269.83,244-273.71c117.84-5,236,11.39,350.84,39,50.81,12.21,102.48,27.29,143.84,58.93,37.1,28.37,75.68,85.33,61.89,134.2-5.92,21-34.28,41.19-51.65,53.21a232.17,232.17,0,0,1-70.53,32.83A222.6,222.6,0,0,1,589.56,50.65Z" transform="translate(254.97 274.6)"/><path class="cls-8" d="M620.88-10C565.42-2.78,509.28-18.17,457-38.3S354.12-83.55,299.76-97.17c-46-11.53-96.7-14.09-139.12,6.47C114.27-68.21,85.17-22.21,61.25,22.86s-46.31,93-86,125.55c-22.63,18.53-56.78,30.78-81,13.92-23.57-16.41-24.09-49.94-22.2-78.17,2.69-40.2,5.42-80.66,15.43-119.67s27.82-76.91,56.94-105.07C-13.82-181,45.93-197,103.5-208.35c175.5-34.49,359.7-38.38,532.81,8.59,27.21,7.38,54.66,16.28,77.24,33,22.77,16.86,47.88,48,30.47,75.32C726.28-63.59,705.48-41,675.1-26.25A177.61,177.61,0,0,1,620.88-10Z" transform="translate(254.97 274.6)"/><path class="cls-9" d="M148.68,106.88C197.07,67.62,243,18,305.14,8.7,360,.53,415.71,26.32,470.75,19.47,562.38,8.05,624-88.61,715.56-100.38c13.11-1.69,26.59-1.56,39.17-5.49s24.58-13.17,26.65-26c3.48-21.55-20.68-36.87-41.45-44.79-64.29-24.5-132.17-38.4-200.15-49.17-129.47-20.51-260.58-30-391.57-30.27-58.57-.11-120.7,2.69-169.13,34.74-61.33,40.6-84.88,116.82-104.25,187.11-18.12,65.7-40.19,143.67-14.52,210.74,9.62,25.13,64.79,19.44,87.55,17.57,34.49-2.84,68.19-12.16,99.81-25.66C84.14,152.83,118.08,131.72,148.68,106.88Z" transform="translate(254.97 274.6)"/><path class="cls-10" d="M729.28,90.38c-58.19,30.09-130.3,21.05-191.62-3.3s-115.91-62.52-175-91.67S235.77-54,171.8-38.74C118.25-25.95,73.67,10.34,37.33,50.93S-29.1,137.3-66.12,177.3c-21.31,23-51.23,45.72-81.8,36.95" transform="translate(254.97 274.6)"/><path class="cls-11" d="M-149,215.56c24.13,7.6,48.35-4.13,68.34-20.37A192.7,192.7,0,0,0-66,181.94c12.74-12.74,24.73-26.27,36.39-40.11C-6.17,114,16.06,84.87,40.93,58,62.44,34.66,86.54,12.72,113.49-4.17c19.63-12.31,40.83-21.93,63.57-27.42C222-42.43,268.8-36.24,312.92-20.81A442.64,442.64,0,0,1,368.74,3.56C394.32,16.7,419.1,31.4,444.34,45.1c31.36,17,62.86,32.38,95.69,43.81,1.74.61,3.49,1.2,5.24,1.79C606.54,111.13,677.1,116,733.12,83.53" transform="translate(254.97 274.6)"/><path class="cls-12" d="M-150.14,216.86c24,8.25,48.53-2.33,69-17.66A189.51,189.51,0,0,0-66,186.58c13.2-12.2,25.64-25.37,37.73-38.9,24.36-27.27,47.33-56,72.76-82.72,22-23.11,46.46-45,73.7-61.87C138-9.2,159.43-18.86,182.33-24.44c45.31-11,92.56-5.26,136.78,10.77,19.26,7,37.86,15.84,55.75,25.39,25.56,13.66,50.37,28.74,76,42,31.85,16.46,63.9,29.82,96.74,39.16,1.74.49,3.49,1,5.24,1.45C614.1,110.84,683.1,111.47,737,76.69" transform="translate(254.97 274.6)"/><path class="cls-13" d="M-151.26,218.16c23.84,8.89,48.73-.52,69.74-15a187.74,187.74,0,0,0,15.62-12,511.94,511.94,0,0,0,39.08-37.7C-1.6,126.87,22.11,98.47,48.12,72,70.63,49,95.41,27.28,123,10.36c20-12.29,41.59-22,64.64-27.64C233.28-28.52,281-23.16,325.3-6.53,344.6.7,363.12,10,381,19.87c25.54,14.18,50.37,29.64,76.45,42.43a432,432,0,0,0,97.8,34.5c1.75.39,3.49.76,5.24,1.12C621.66,110.54,689.11,107,740.8,69.85" transform="translate(254.97 274.6)"/><path class="cls-14" d="M-152.37,219.46c23.69,9.54,48.88,1.24,70.44-12.25a189.86,189.86,0,0,0,16.1-11.34,464,464,0,0,0,40.44-36.5C.68,133.32,25.13,105.28,51.71,79c23-22.76,48.14-44.43,76-61.36,20.16-12.28,42-22,65.17-27.76C238.93-21.57,287.06-16.61,331.49.6,350.82,8.09,369.27,17.78,387.1,28,412.62,42.72,437.47,58.56,464,70.9a366.68,366.68,0,0,0,98.86,29.85c1.75.27,3.5.54,5.24.78,61.15,8.72,127,1,176.57-38.52" transform="translate(254.97 274.6)"/><path class="cls-15" d="M-153.48,220.76c23.54,10.18,49.06,3,71.13-9.54a186.69,186.69,0,0,0,16.59-10.71A424.4,424.4,0,0,0-24,165.22C3,139.78,28.15,112.08,55.31,86c23.52-22.59,49-44.17,77.1-61.1,20.34-12.27,42.36-22,65.71-27.88,46.46-11.64,95-7.09,139.56,10.72,19.37,7.74,37.74,17.84,55.54,28.45,25.5,15.2,50.37,31.43,77.29,43.31,33.36,14.75,67,22.13,99.93,25.2,1.74.16,3.49.31,5.24.45,61.1,4.8,125.44-7.16,172.8-49" transform="translate(254.97 274.6)"/><path class="cls-16" d="M-154.59,222.07c23.39,10.82,49.25,4.83,71.83-6.84a181.3,181.3,0,0,0,17.07-10.07c15.07-10,29.36-21.77,43.14-34.09C5.25,146.24,31.18,118.89,58.91,93c24-22.41,49.81-43.9,78.23-60.84,20.52-12.26,42.74-22.07,66.24-28,46.84-11.83,95.85-7.7,140.49,10.71,19.4,8,37.7,18.51,55.47,29.46,25.47,15.72,50.37,32.33,77.72,43.76,33.85,14.18,68.07,19.57,101,20.54,1.75.06,3.49.09,5.24.12,61.06.9,123.85-15.27,169-59.44" transform="translate(254.97 274.6)"/><path class="cls-17" d="M-155.7,223.37c23.24,11.47,49.43,6.63,72.53-4.13a178.8,178.8,0,0,0,17.56-9.44c15.53-9.49,30.27-20.86,44.49-32.88C7.54,152.69,34.2,125.69,62.5,100,87,77.79,113.16,56.39,141.86,39.43a255.73,255.73,0,0,1,66.78-28.11A221.15,221.15,0,0,1,350.06,22c19.43,8.24,37.66,19.18,55.4,30.48,25.45,16.23,50.38,33.23,78.14,44.2,34.35,13.61,69.12,17,102,15.89,1.75-.06,3.5-.13,5.24-.22,61-3,122.26-23.37,165.28-69.89" transform="translate(254.97 274.6)"/><path class="cls-18" d="M-156.81,224.67c23.08,12.11,49.62,8.43,73.22-1.42a176.21,176.21,0,0,0,18-8.81c16-8.95,31.2-20,45.84-31.67C9.82,159.15,37.22,132.5,66.1,107c25-22.06,51.5-43.37,80.49-60.34a263.53,263.53,0,0,1,67.32-28.23c47.6-12.23,97.5-8.92,142.34,10.68,19.47,8.5,37.62,19.85,55.33,31.5C437,77.4,462,94.78,490.14,105.3c34.85,13,70.16,14.45,103.11,11.24,1.74-.17,3.49-.36,5.23-.55,61-6.92,120.66-31.49,161.52-80.36" transform="translate(254.97 274.6)"/><path class="cls-19" d="M-157.92,226c22.93,12.76,49.81,10.24,73.92,1.28a172.53,172.53,0,0,0,18.53-8.16C-49,210.66-33.34,200-18.28,188.61c30.39-23,58.52-49.31,88-74.56C95.22,92.17,122,71,151.32,54a271.5,271.5,0,0,1,67.85-28.34c48-12.43,98.32-9.53,143.27,10.66C381.94,45,400,56.81,417.71,68.81c25.4,17.27,50.37,35,79,45.09,35.35,12.48,71.21,11.89,104.17,6.59,1.75-.29,3.49-.58,5.24-.89C667,108.78,725.15,80,763.84,28.79" transform="translate(254.97 274.6)"/><path class="cls-20" d="M-159,227.27c22.79,13.4,50,12,74.62,4a169.78,169.78,0,0,0,19-7.53c16.91-7.89,33.06-18.16,48.55-29.27,31.24-22.4,60.12-48.36,90.14-73.4,26-21.7,53.18-42.83,82.76-59.82a279.79,279.79,0,0,1,68.38-28.46c48.37-12.63,99.15-10.14,144.2,10.65,19.54,9,37.54,21.18,55.2,33.54,25.38,17.78,50.37,35.92,79.39,45.53,35.86,11.91,72.26,9.33,105.23,1.93q2.63-.59,5.24-1.22c60.89-14.73,117.47-47.7,154-101.26" transform="translate(254.97 274.6)"/><path class="cls-21" d="M-160.15,228.58c22.64,14,50.2,13.85,75.32,6.69a172.17,172.17,0,0,0,19.51-6.9c17.35-7.39,34-17.25,49.89-28.06,32.1-21.79,61.72-47.4,92.32-72.23,26.53-21.53,54-42.57,83.89-59.58A288.25,288.25,0,0,1,229.7,39.93c48.75-12.83,100-10.75,145.12,10.64,19.57,9.26,37.5,21.85,55.13,34.55,25.35,18.3,50.37,36.82,79.82,46,36.35,11.34,73.29,6.77,106.28-2.72,1.76-.5,3.5-1,5.24-1.56C682.14,108.19,737.17,71,771.52,15.11" transform="translate(254.97 274.6)"/><path class="cls-22" d="M-161.26,229.88c22.49,14.68,50.39,15.66,76,9.4a171,171,0,0,0,20-6.26c17.81-6.86,34.9-16.36,51.25-26.86C19,185,49.31,159.71,80.48,135.09c27-21.35,54.87-42.3,85-59.32A297,297,0,0,1,235,47.08c49.13-13,100.79-11.36,146,10.62,19.61,9.52,37.46,22.53,55.06,35.58,25.33,18.81,50.38,37.71,80.24,46.42,36.85,10.77,74.34,4.2,107.35-7.37,1.75-.62,3.5-1.25,5.23-1.89C689.7,107.89,743.17,66.52,775.36,8.26" transform="translate(254.97 274.6)"/><path class="cls-23" d="M-162.37,231.18c22.34,15.33,50.57,17.48,76.71,12.11a169.23,169.23,0,0,0,20.48-5.63c18.28-6.32,35.83-15.45,52.6-25.66,33.82-20.57,64.91-45.48,96.66-69.9,27.53-21.17,55.71-42,86.16-59.06a306.37,306.37,0,0,1,70-28.81c49.52-13.22,101.62-12,147,10.61,19.64,9.77,37.42,23.19,55,36.59,25.31,19.33,50.38,38.62,80.66,46.87,37.35,10.2,75.39,1.64,108.41-12q2.63-1.08,5.24-2.22C697.26,107.6,749.18,62,779.2,1.42" transform="translate(254.97 274.6)"/><path class="cls-24" d="M-163.48,232.48c22.19,16,50.77,19.34,77.41,14.81a161.78,161.78,0,0,0,21-5c18.74-5.78,36.76-14.55,54-24.45,34.69-20,66.52-44.53,98.83-68.74,28-21,56.55-41.76,87.3-58.8a315.82,315.82,0,0,1,70.52-28.93C295.38,48,347.93,48.81,393.39,72c19.68,10,37.38,23.86,54.92,37.61,25.29,19.84,50.38,39.51,81.08,47.31,37.85,9.63,76.43-.92,109.47-16.68,1.76-.84,3.5-1.69,5.24-2.56C704.82,107.3,755.19,57.52,783-5.42" transform="translate(254.97 274.6)"/><path class="cls-25" d="M-164.59,233.79c22,16.61,51,21.14,78.11,17.51A162.06,162.06,0,0,0-65,246.94c19.2-5.25,37.68-13.64,55.3-23.24,35.54-19.36,68.11-43.57,101-67.57,28.54-20.82,57.39-41.51,88.43-58.56a325.7,325.7,0,0,1,71.05-29C301,54.91,354,55.35,399.58,79.12c19.71,10.27,37.34,24.52,54.85,38.62,25.27,20.37,50.38,40.41,81.51,47.76,38.34,9.06,77.47-3.48,110.53-21.33,1.75-.95,3.5-1.91,5.23-2.89C712.38,107,761.19,53,786.88-12.27" transform="translate(254.97 274.6)"/><path class="cls-26" d="M-165.7,235.09c21.89,17.26,51.14,23,78.8,20.22A161.86,161.86,0,0,0-65,251.59c19.66-4.72,38.61-12.75,56.65-22,36.4-18.75,69.71-42.62,103.18-66.41,29-20.64,58.23-41.24,89.56-58.3A335.67,335.67,0,0,1,256,75.69c50.65-13.82,104.08-13.8,149.75,10.56,19.75,10.54,37.3,25.2,54.78,39.65,25.24,20.88,50.38,41.31,81.93,48.2,38.85,8.49,78.51-6,111.59-26,1.75-1.05,3.5-2.13,5.23-3.22,60.64-38.18,107.9-96.36,131.42-164" transform="translate(254.97 274.6)"/><path class="cls-27" d="M-166.81,236.39c21.73,17.9,51.33,24.75,79.5,22.93s55.18-11.64,80.42-23.92c69.61-33.89,128-86.54,196-123.29s154.46-56,222.8-18.72c48.36,26.37,83,78.42,137.06,89.31,39.35,7.92,79.56-8.6,112.65-30.64C724.87,110,772.6,46,794.56-25.95" transform="translate(254.97 274.6)"/><path class="cls-28" d="M-2.9-94.22c64.75-28.69,146.25-17.63,216,8.52s132.31,66,199.73,97S557.1,64.44,628.77,50.8C688.76,39.39,738,4.11,777.85-35.74S850.35-120.8,891-160c23.39-22.58,56.49-44.6,91.17-34.95" transform="translate(254.97 274.6)"/><path class="cls-29" d="M983.36-196.25c-27.41-8.31-54.37,2.84-76.45,18.63a193.21,193.21,0,0,0-16.15,12.93c-14,12.46-27.14,25.75-39.9,39.35-25.72,27.4-50,56.05-77.26,82.45C750-20,723.44,1.36,693.53,17.62a244.84,244.84,0,0,1-70.89,25.85c-50.33,9.68-103.24,2.18-153.37-14.54a560,560,0,0,1-63.56-26C376.53-11,348.2-26.47,319.39-40.94c-35.79-18-71.71-34.27-109-46.66q-3-1-6-1.94c-69.59-22.22-149.22-29-211.47,2.1" transform="translate(254.97 274.6)"/><path class="cls-30" d="M984.57-197.53c-27.25-8.95-54.63,1-77.31,15.89a196,196,0,0,0-16.7,12.27,560.14,560.14,0,0,0-41.46,38.11C822.39-104.5,797.29-76.21,769.36-50c-24.18,22.65-51.12,44-81.36,60.22a252.4,252.4,0,0,1-71.49,26C565.76,46,512.36,38.91,462.1,21.59A542.47,542.47,0,0,1,398.59-5.47c-29.17-14.43-57.53-30.28-86.8-44.3-36.35-17.42-72.82-31.72-110.08-42-2-.54-4-1.08-5.94-1.6C126.33-111.67,48.56-114.19-11.18-80.67" transform="translate(254.97 274.6)"/><path class="cls-31" d="M985.79-198.81c-27.1-9.59-54.89-.8-78.17,13.15A194.81,194.81,0,0,0,890.35-174a511.16,511.16,0,0,0-43,36.86c-27.69,26.12-53.63,54-82.21,80C740.37-34.73,713-13.52,682.48,2.74a259.82,259.82,0,0,1-72.09,26.05c-51.18,10.07-105.06,3.37-155.46-14.55C433,6.44,411.87-3.39,391.47-13.84,362.31-28.79,333.92-45,304.18-58.59A551.38,551.38,0,0,0,193-95.95c-2-.44-3.95-.86-5.93-1.27-69.29-14.36-145.2-12.61-202.43,23.33" transform="translate(254.97 274.6)"/><path class="cls-32" d="M987-200.09c-27-10.24-55.11-2.57-79,10.41a197.12,197.12,0,0,0-17.84,11,470.73,470.73,0,0,0-44.57,35.61c-28.67,25.49-55.46,53-84.7,78.76C735.56-42.08,707.84-21,677-4.69a267.78,267.78,0,0,1-72.69,26.15c-51.6,10.25-106,4-156.5-14.57-22-8-43-18.3-63.41-29.1-29.15-15.47-57.58-32.08-87.77-45.21a469.22,469.22,0,0,0-112.21-32.71c-2-.32-4-.63-5.93-.93-69.13-10.43-143.17-4.41-197.9,34" transform="translate(254.97 274.6)"/><path class="cls-33" d="M988.22-201.37c-26.79-10.88-55.36-4.38-79.89,7.67a201.35,201.35,0,0,0-18.4,10.32A437.59,437.59,0,0,0,843.81-149c-29.66,24.85-57.29,52-87.18,77.53-25.88,22.07-54,43.09-85.21,59.36a275.85,275.85,0,0,1-73.28,26.25c-52,10.44-106.88,4.55-157.55-14.58-22-8.31-43-19-63.35-30.12-29.14-16-57.61-33-88.27-45.67C251-92,212.84-100.33,175.69-104.31q-3-.31-5.91-.59c-69-6.5-141.16,3.79-193.38,44.57" transform="translate(254.97 274.6)"/><path class="cls-34" d="M989.44-202.65c-26.64-11.52-55.62-6.2-80.75,4.93a198.18,198.18,0,0,0-19,9.66C873-178.38,857.24-167,842-154.95c-30.64,24.23-59.11,51-89.65,76.3-26.46,21.89-54.94,42.8-86.49,59.08A283.85,283.85,0,0,1,592,6.78C539.56,17.41,484.22,11.92,433.42-7.8c-22.07-8.57-43-19.65-63.3-31.15C341-55.45,312.48-72.84,281.36-85.08c-38.53-15.18-77.24-21.53-114.34-23.4q-3-.15-5.91-.26C92.29-111.31,22-96.75-27.74-53.55" transform="translate(254.97 274.6)"/><path class="cls-35" d="M990.66-203.93c-26.5-12.16-55.88-8-81.61,2.19a197.8,197.8,0,0,0-19.53,9c-17.24,9.13-33.55,20.16-49.24,31.86-31.63,23.59-60.94,50-92.13,75.07-27,21.7-55.9,42.51-87.78,58.79A293.11,293.11,0,0,1,585.89-.55a280.41,280.41,0,0,1-159.64-14.6C404.13-24,383.3-35.47,363-47.32c-29.12-17-57.66-34.79-89.24-46.58-39.08-14.63-78.35-19-115.42-18.76-2,0-3.93,0-5.89.08C83.78-111.22,15.33-92.39-31.88-46.77" transform="translate(254.97 274.6)"/><path class="cls-36" d="M991.87-205.21c-26.34-12.81-56.14-9.83-82.46-.55a196.31,196.31,0,0,0-20.1,8.36c-17.78,8.57-34.62,19.23-50.79,30.61-32.62,22.95-62.77,49-94.62,73.84-27.59,21.5-56.85,42.22-89.06,58.5A301.59,301.59,0,0,1,579.76-7.89,277,277,0,0,1,419.09-22.5c-22.17-9.08-42.93-21-63.21-33.19-29.1-17.54-57.69-35.69-89.73-47-39.62-14.07-79.45-16.44-116.48-14.11-2,.13-3.93.26-5.89.42C75.27-111.13,8.68-88-36-40" transform="translate(254.97 274.6)"/><path class="cls-37" d="M993.09-206.49c-26.19-13.45-56.4-11.65-83.33-3.3a197.83,197.83,0,0,0-20.66,7.72c-18.31,8-35.68,18.29-52.35,29.36-33.6,22.32-64.59,48-97.09,72.61-28.17,21.31-57.81,41.93-90.34,58.21a311.05,311.05,0,0,1-75.68,26.66C519.91-4,463.11-8.31,411.92-29.85,389.7-39.18,369-51.51,348.76-64.06c-29.09-18.06-57.71-36.6-90.21-47.5C218.37-125.07,178-125.45,141-121q-3,.35-5.88.74C66.76-111,2-83.68-40.16-33.22" transform="translate(254.97 274.6)"/><path class="cls-38" d="M994.31-207.77c-26-14.09-56.67-13.47-84.19-6a198.54,198.54,0,0,0-21.23,7.06c-18.84,7.48-36.75,17.37-53.9,28.12-34.59,21.68-66.42,47-99.57,71.38-28.74,21.12-58.76,41.63-91.63,57.92a320.42,320.42,0,0,1-76.28,26.77c-54.15,11.39-111.43,7.5-162.76-14.64-22.26-9.59-42.87-22.32-63.11-35.23-29.08-18.57-57.73-37.5-90.7-48-40.72-13-81.66-11.34-118.62-4.8q-2.94.52-5.87,1.08C58.25-110.94-4.61-79.32-44.3-26.44" transform="translate(254.97 274.6)"/><path class="cls-39" d="M995.52-209c-25.88-14.73-56.93-15.3-85-8.78a201.42,201.42,0,0,0-21.79,6.41c-19.36,7-37.82,16.43-55.46,26.87-35.58,21.05-68.25,46-102.05,70.15-29.31,20.92-59.72,41.34-92.92,57.63A330.17,330.17,0,0,1,561.39-29.9C506.81-18.32,449-21.8,397.58-44.54c-22.31-9.85-42.85-23-63.05-36.26-29.07-19.09-57.77-38.4-91.19-48.42-41.27-12.39-82.78-8.79-119.69-.15q-2.94.69-5.86,1.42c-68.05,17.1-129,53-166.23,108.29" transform="translate(254.97 274.6)"/><path class="cls-40" d="M996.74-210.33c-25.74-15.38-57.19-17.12-85.91-11.52a199.92,199.92,0,0,0-22.35,5.76c-19.89,6.41-38.89,15.5-57,25.62-36.57,20.41-70.08,45-104.54,68.91-29.87,20.74-60.67,41.06-94.2,57.36a341.32,341.32,0,0,1-77.47,27c-55,11.76-113.26,8.68-164.85-14.66-22.35-10.1-42.82-23.67-63-37.28-29.06-19.61-57.79-39.3-91.68-48.87-41.81-11.84-83.88-6.25-120.75,4.5q-2.94.85-5.85,1.75c-67.9,21-127,61.19-161.71,118.91" transform="translate(254.97 274.6)"/><path class="cls-41" d="M998-211.61c-25.59-16-57.46-18.95-86.77-14.26a198.82,198.82,0,0,0-22.92,5.11c-20.42,5.86-39.95,14.57-58.57,24.37-37.55,19.78-71.9,44-107,67.68-30.45,20.55-61.63,40.77-95.48,57.07a352.27,352.27,0,0,1-78.07,27.07c-55.43,12-114.17,9.28-165.9-14.67-22.39-10.36-42.79-24.34-62.95-38.3-29.05-20.13-57.82-40.21-92.16-49.33-42.37-11.28-85-3.7-121.83,9.15q-2.92,1-5.84,2.09c-67.74,25-125,69.39-157.18,129.53" transform="translate(254.97 274.6)"/><path class="cls-42" d="M999.18-212.88c-25.44-16.67-57.74-20.84-87.63-17a196,196,0,0,0-23.49,4.46c-20.95,5.3-41,13.63-60.12,23.12-38.54,19.14-73.74,43-109.49,66.45-31,20.35-62.58,40.48-96.77,56.78A362.75,362.75,0,0,1,543-51.91C487.16-39.76,427.93-42,376.07-66.59c-22.44-10.61-42.76-25-62.9-39.32-29-20.65-57.84-41.11-92.65-49.79-42.91-10.71-86.09-1.15-122.89,13.8q-2.94,1.2-5.83,2.43C24.2-110.58-31.19-61.88-60.86.68" transform="translate(254.97 274.6)"/><path class="cls-43" d="M1000.39-214.16c-25.28-17.32-58-22.66-88.48-19.75a196.83,196.83,0,0,0-24,3.8c-21.5,4.76-42.09,12.71-61.68,21.88-39.53,18.5-75.57,42-112,65.22-31.59,20.16-63.54,40.18-98.06,56.49a374.44,374.44,0,0,1-79.26,27.28c-56.28,12.33-116,10.45-168-14.69-22.48-10.88-42.73-25.69-62.85-40.35-29-21.16-57.87-42-93.14-50.25-43.45-10.15-87.19,1.4-124,18.46q-2.92,1.35-5.82,2.76C15.69-110.49-37.84-57.52-65,7.45" transform="translate(254.97 274.6)"/><path class="cls-44" d="M1001.61-215.44c-25.13-18-58.25-24.48-89.35-22.49a198.47,198.47,0,0,0-24.61,3.15c-22,4.21-43.16,11.77-63.24,20.63-40.51,17.87-77.39,41-114.45,64-32.16,20-64.49,39.89-99.33,56.2a386,386,0,0,1-79.87,27.38c-56.7,12.52-116.9,11-169-14.7-22.53-11.13-42.71-26.36-62.8-41.37-29-21.68-57.89-42.91-93.62-50.7-44-9.6-88.31,3.94-125,23.1q-2.93,1.53-5.81,3.1c-67.29,36.75-119,94-143.61,161.38" transform="translate(254.97 274.6)"/><path class="cls-45" d="M1002.83-216.72c-25-18.6-58.51-26.3-90.21-25.23s-61.86,10.21-90,21.88C745.14-187.88,680.8-136.51,605.1-101.4S432.59-49.29,354.57-88.63c-55.22-27.84-95.63-81.13-156.87-93.55-44.55-9-89.41,6.49-126.09,27.75C1.54-113.82-50.5-50.8-73.29,21" transform="translate(254.97 274.6)"/><path class="cls-46" d="M133.3,389.24c153.08-18.38,308.24,65.58,459.19,35,75.81-15.38,142.21-58.3,206.4-100.54,18.8-12.38,45.08-24.49,62.18-9.68,11.83,10.25,11.88,28,10.75,43.42a1426.18,1426.18,0,0,1-22.68,169c-11.52,58.83-29.87,121.7-78.9,157-47.87,34.49-112.65,33.82-172,28.66C394.85,694.39,196.3,641,.39,583.46c-19.6-5.75-40.68-12.58-52.45-29.07-11.18-15.67-11.09-37-4.58-54.91C-30.48,427.55,62.94,397.69,133.3,389.24Z" transform="translate(254.97 274.6)"/><path class="cls-47" d="M-23.06,550.14A135.42,135.42,0,0,1-52.71,485.4a112.27,112.27,0,0,1,1.26-44.24,91.12,91.12,0,0,1,7.58-20.45,97.07,97.07,0,0,1,5.67-9.44C-36,408-35.63,404-33.1,400.91c2.11-2.62,4.31-2.53,7.14-3.56,2.55-.92,5.08-2.86,7.56-4.07a142.42,142.42,0,0,1,16.31-6.75,174.22,174.22,0,0,1,34.93-8c32.93-4.16,66.64-.56,98.86,6.81,83.2,19,160.3,58.29,242.16,82.42s175,31.5,248.23-10.9c47.57-27.54,81.15-72.68,117.59-113.42a856.17,856.17,0,0,1,67-67c10.85-9.7,24-19.76,38.57-17.64,22.46,3.26,30.13,31.09,31.72,53.35a783.58,783.58,0,0,1-3.56,148.71c-6.88,57.49-21.73,117.15-62.14,159-38.43,39.82-94.88,58-150.28,65.87-94.68,13.51-191.16,1.38-286.23-10.74-87.31-11.14-175.06-22.37-259.53-47.13C63.65,612.76,11.27,591.06-23.06,550.14Z" transform="translate(254.97 274.6)"/><path class="cls-48" d="M158.59,441.85c81.51,11.2,150.4,65.16,229,89.36,97.9,30.13,211.63,9.1,286.77-58.72,22.6-20.4,41.85-44.7,67.38-61.45s60.49-24.64,87-8.94c20.25,12,31.07,35,36.33,57.67,20.35,87.57-28.84,180.09-102.57,232.32s-167.31,70.24-258.38,74.12c-117.84,5-236-11.39-350.84-39C102.47,715,50.79,699.94,9.43,668.3-27.66,639.93-66.25,583-52.46,534.1c5.93-21,34.28-41.19,51.65-53.21a232.23,232.23,0,0,1,70.54-32.83A222.54,222.54,0,0,1,158.59,441.85Z" transform="translate(254.97 274.6)"/><path class="cls-49" d="M127.28,502.53c55.45-7.25,111.59,8.14,163.86,28.27S394,576.05,448.39,589.67c46.05,11.54,96.7,14.1,139.12-6.47,46.38-22.49,75.48-68.49,99.4-113.56s46.3-93,86-125.55c22.62-18.53,56.78-30.78,81-13.92,23.57,16.41,24.09,49.94,22.21,78.17-2.69,40.2-5.42,80.66-15.43,119.67s-27.83,76.91-56.94,105.07C762,673.46,702.23,689.54,644.66,700.85c-175.51,34.49-359.7,38.38-532.82-8.59-27.21-7.38-54.66-16.28-77.24-33-22.77-16.86-47.88-48-30.46-75.32,17.73-27.84,38.54-50.43,68.91-65.18A177.59,177.59,0,0,1,127.28,502.53Z" transform="translate(254.97 274.6)"/><path class="cls-50" d="M599.47,385.62C551.08,424.88,505.2,474.53,443,483.8,388.18,492,332.44,466.18,277.41,473,185.78,484.45,124.17,581.11,32.59,592.88c-13.1,1.69-26.59,1.56-39.17,5.49s-24.58,13.17-26.65,26c-3.48,21.55,20.68,36.87,41.45,44.79,64.29,24.5,132.17,38.4,200.15,49.17,129.47,20.51,260.58,30,391.57,30.27,58.58.11,120.7-2.69,169.13-34.74,61.34-40.6,84.88-116.82,104.26-187.11,18.11-65.7,40.18-143.67,14.51-210.74-9.62-25.13-64.79-19.44-87.54-17.57-34.5,2.84-68.2,12.16-99.82,25.66C664,339.67,630.07,360.78,599.47,385.62Z" transform="translate(254.97 274.6)"/><path class="cls-51" d="M18.87,402.12c58.19-30.09,130.31-21.05,191.62,3.3s115.91,62.52,175,91.67,126.85,49.43,190.82,34.15c53.55-12.79,98.13-49.08,134.47-89.67s66.43-86.36,103.45-126.37c21.31-23,51.24-45.72,81.81-36.95" transform="translate(254.97 274.6)"/><path class="cls-52" d="M897.19,277c-24.14-7.61-48.36,4.12-68.34,20.36a192.86,192.86,0,0,0-14.65,13.25c-12.74,12.74-24.72,26.27-36.38,40.11-23.5,27.87-45.73,57-70.59,83.88-21.51,23.29-45.61,45.23-72.56,62.12C615,509,593.83,518.6,571.09,524.09c-44.93,10.84-91.74,4.65-135.86-10.78a443.9,443.9,0,0,1-55.82-24.37c-25.58-13.14-50.36-27.84-75.6-41.54-31.36-17-62.86-32.38-95.68-43.81-1.75-.61-3.49-1.2-5.24-1.79C141.62,381.37,71.06,376.53,15,409" transform="translate(254.97 274.6)"/><path class="cls-53" d="M898.3,275.64c-24-8.25-48.54,2.33-69,17.66a187.58,187.58,0,0,0-15.13,12.62c-13.2,12.2-25.65,25.37-37.74,38.9-24.35,27.27-47.32,56-72.76,82.72-22,23.11-46.45,45-73.69,61.87-19.81,12.29-41.22,21.95-64.11,27.53-45.32,11-92.56,5.26-136.79-10.77-19.26-7-37.85-15.84-55.75-25.39-25.56-13.66-50.36-28.74-76-42-31.86-16.46-63.9-29.82-96.75-39.16-1.74-.49-3.49-1-5.24-1.45C134.06,381.66,65.05,381,11.19,415.81" transform="translate(254.97 274.6)"/><path class="cls-54" d="M899.41,274.34c-23.84-8.89-48.73.52-69.74,15a185.93,185.93,0,0,0-15.61,12A510.23,510.23,0,0,0,775,339C749.75,365.63,726.05,394,700,420.53c-22.52,22.93-47.3,44.69-74.83,61.61-20,12.29-41.6,22-64.65,27.64C514.87,521,467.18,515.66,422.85,499c-19.29-7.23-37.81-16.51-55.68-26.41-25.54-14.18-50.36-29.64-76.44-42.43a432.21,432.21,0,0,0-97.81-34.5q-2.61-.58-5.24-1.12C126.5,382,59,385.52,7.35,422.65" transform="translate(254.97 274.6)"/><path class="cls-55" d="M900.52,273c-23.69-9.54-48.88-1.24-70.43,12.25A188.45,188.45,0,0,0,814,296.63a463.92,463.92,0,0,0-40.43,36.5c-26.08,26.05-50.53,54.09-77.11,80.38-23,22.76-48.14,44.43-76,61.36-20.17,12.28-42,22-65.18,27.76-46.08,11.44-94.21,6.48-138.64-10.73-19.33-7.49-37.77-17.18-55.61-27.43-25.51-14.69-50.37-30.53-76.87-42.87a366.93,366.93,0,0,0-98.86-29.85c-1.75-.27-3.49-.54-5.24-.78-61.14-8.72-127-1-176.56,38.52" transform="translate(254.97 274.6)"/><path class="cls-56" d="M901.63,271.74c-23.53-10.18-49.06-3-71.13,9.54A186.69,186.69,0,0,0,813.91,292a425.57,425.57,0,0,0-41.79,35.29c-26.94,25.44-52.12,53.14-79.28,79.22-23.52,22.59-49,44.17-77.09,61.1-20.35,12.27-42.36,22-65.71,27.88-46.46,11.64-95,7.09-139.57-10.72-19.36-7.74-37.73-17.84-55.54-28.45-25.49-15.2-50.37-31.43-77.29-43.31-33.35-14.75-67-22.13-99.92-25.2l-5.24-.45c-61.1-4.8-125.45,7.16-172.8,49" transform="translate(254.97 274.6)"/><path class="cls-57" d="M902.74,270.43c-23.38-10.82-49.24-4.83-71.83,6.84a179.25,179.25,0,0,0-17.07,10.08c-15.07,10-29.35,21.76-43.14,34.08-27.8,24.83-53.72,52.18-81.45,78.06-24,22.41-49.82,43.9-78.23,60.85-20.52,12.25-42.75,22.06-66.25,28-46.84,11.83-95.85,7.7-140.49-10.71-19.4-8-37.69-18.51-55.47-29.46-25.47-15.72-50.37-32.33-77.71-43.76-33.86-14.18-68.08-19.57-101-20.54-1.74-.06-3.49-.09-5.24-.12C103.82,382.84,41,399-4.16,443.18" transform="translate(254.97 274.6)"/><path class="cls-58" d="M903.85,269.13c-23.23-11.46-49.43-6.63-72.52,4.13a176.55,176.55,0,0,0-17.56,9.44c-15.53,9.49-30.28,20.86-44.49,32.88-28.66,24.23-55.33,51.23-83.63,76.9-24.52,22.23-50.66,43.63-79.36,60.59a255.73,255.73,0,0,1-66.78,28.11,221.16,221.16,0,0,1-141.42-10.7c-19.43-8.24-37.65-19.18-55.4-30.48-25.45-16.23-50.37-33.22-78.13-44.2-34.36-13.61-69.12-17-102.05-15.89-1.75.06-3.49.13-5.24.22C96.26,383.14,35,403.51-8,450" transform="translate(254.97 274.6)"/><path class="cls-59" d="M905,267.83c-23.09-12.11-49.63-8.43-73.23,1.43a174.1,174.1,0,0,0-18,8.8c-16,9-31.2,20-45.84,31.67-29.52,23.62-56.92,50.27-85.79,75.73-25,22.06-51.51,43.37-80.5,60.34A263.46,263.46,0,0,1,534.25,474c-47.61,12.23-97.5,8.92-142.35-10.68-19.47-8.5-37.61-19.85-55.33-31.5C311.14,415.1,286.2,397.72,258,387.2c-34.85-13-70.16-14.45-103.1-11.24-1.75.17-3.5.36-5.24.55C88.7,383.43,29,408-11.84,456.87" transform="translate(254.97 274.6)"/><path class="cls-60" d="M906.08,266.53c-22.94-12.76-49.81-10.24-73.92-1.28a169.93,169.93,0,0,0-18.54,8.17c-16.45,8.42-32.13,19.05-47.19,30.47-30.38,23-58.52,49.31-88,74.56-25.53,21.88-52.34,43.1-81.63,60.08A271.35,271.35,0,0,1,529,466.87c-48,12.43-98.32,9.54-143.27-10.66-19.5-8.75-37.57-20.52-55.26-32.52-25.4-17.27-50.38-35-79-45.09-35.35-12.48-71.21-11.89-104.17-6.59-1.74.29-3.49.58-5.23.89C81.14,383.73,23,412.5-15.68,463.71" transform="translate(254.97 274.6)"/><path class="cls-61" d="M907.19,265.23c-22.79-13.4-50-12.05-74.62-4a170.54,170.54,0,0,0-19,7.53C796.64,276.66,780.49,286.93,765,298c-31.25,22.4-60.12,48.36-90.15,73.4-26,21.7-53.18,42.83-82.76,59.82a279.62,279.62,0,0,1-68.38,28.46c-48.37,12.63-99.15,10.14-144.2-10.65-19.53-9-37.53-21.18-55.19-33.54C299,397.75,274,379.61,244.93,370c-35.85-11.91-72.25-9.33-105.23-1.93-1.75.39-3.49.8-5.24,1.22C73.58,384,17,417-19.52,470.55" transform="translate(254.97 274.6)"/><path class="cls-62" d="M908.3,263.92c-22.64-14-50.19-13.85-75.32-6.69a172,172,0,0,0-19.5,6.9c-17.36,7.39-34,17.25-49.9,28.06-32.1,21.79-61.72,47.4-92.31,72.23C644.74,386,617.24,407,587.37,424a288.18,288.18,0,0,1-68.91,28.57c-48.75,12.83-100,10.75-145.13-10.64-19.57-9.26-37.49-21.85-55.12-34.55-25.36-18.3-50.38-36.82-79.82-46-36.35-11.34-73.3-6.76-106.29,2.72q-2.62.75-5.24,1.56C66,384.31,11,421.49-23.36,477.4" transform="translate(254.97 274.6)"/><path class="cls-63" d="M909.41,262.62c-22.49-14.68-50.38-15.66-76-9.4a168.75,168.75,0,0,0-20,6.27c-17.81,6.85-34.9,16.35-51.24,26.85-33,21.19-63.32,46.45-94.49,71.07-27,21.35-54.87,42.3-85,59.32a297,297,0,0,1-69.45,28.69c-49.13,13-100.79,11.36-146.05-10.62-19.6-9.52-37.46-22.53-55.05-35.58-25.34-18.81-50.38-37.71-80.25-46.42C195,342,157.5,348.6,124.5,360.17c-1.76.62-3.5,1.25-5.24,1.89C58.45,384.61,5,426-27.2,484.24" transform="translate(254.97 274.6)"/><path class="cls-64" d="M910.52,261.32C888.18,246,860,243.84,833.81,249.21a169.73,169.73,0,0,0-20.48,5.63c-18.27,6.32-35.83,15.45-52.6,25.66-33.82,20.57-64.91,45.48-96.65,69.9-27.54,21.17-55.71,42-86.17,59.06a306.18,306.18,0,0,1-70,28.81c-49.51,13.22-101.62,12-147-10.61-19.64-9.77-37.42-23.19-55-36.59-25.32-19.33-50.38-38.62-80.67-46.87-37.35-10.2-75.38-1.64-108.41,12-1.75.72-3.5,1.46-5.23,2.22C50.89,384.9-1,430.48-31,491.08" transform="translate(254.97 274.6)"/><path class="cls-65" d="M911.63,260c-22.18-16-50.77-19.34-77.41-14.81a162.18,162.18,0,0,0-21,5c-18.74,5.78-36.76,14.55-54,24.45-34.68,20-66.51,44.53-98.83,68.74-28,21-56.55,41.76-87.3,58.8a315.75,315.75,0,0,1-70.51,28.93c-49.9,13.42-102.44,12.58-147.91-10.6-19.67-10-37.38-23.86-54.92-37.61-25.28-19.84-50.38-39.51-81.08-47.31-37.85-9.63-76.43.92-109.47,16.68-1.75.84-3.5,1.69-5.23,2.56C43.33,385.2-7,435-34.88,497.92" transform="translate(254.97 274.6)"/><path class="cls-66" d="M912.75,258.71c-22-16.61-51-21.14-78.11-17.51a161.74,161.74,0,0,0-21.45,4.36c-19.2,5.25-37.69,13.65-55.3,23.24-35.55,19.36-68.12,43.58-101,67.57-28.53,20.82-57.39,41.51-88.43,58.56a325.49,325.49,0,0,1-71.05,29c-50.27,13.63-103.26,13.19-148.83-10.58-19.71-10.27-37.34-24.52-54.85-38.62-25.26-20.36-50.38-40.41-81.5-47.76-38.35-9.06-77.47,3.48-110.53,21.33-1.76.95-3.5,1.92-5.24,2.9C35.77,385.49-13,439.47-38.72,504.77" transform="translate(254.97 274.6)"/><path class="cls-67" d="M913.86,257.41c-21.89-17.26-51.15-22.94-78.81-20.22a161.71,161.71,0,0,0-21.93,3.72c-19.67,4.72-38.61,12.75-56.66,22-36.4,18.75-69.71,42.62-103.17,66.41-29,20.64-58.24,41.24-89.57,58.3a335.8,335.8,0,0,1-71.58,29.15c-50.66,13.82-104.09,13.8-149.76-10.56-19.74-10.53-37.3-25.2-54.78-39.65-25.24-20.88-50.38-41.31-81.93-48.2-38.84-8.49-78.51,6-111.58,26q-2.64,1.59-5.24,3.22C28.21,385.79-19,444-42.56,511.61" transform="translate(254.97 274.6)"/><path class="cls-68" d="M915,256.11c-21.74-17.9-51.33-24.75-79.51-22.93S780.28,244.82,755,257.11c-69.61,33.88-128,86.54-196,123.28s-154.45,56-222.8,18.72c-48.36-26.37-83-78.42-137.06-89.31-39.34-7.92-79.56,8.6-112.65,30.64-63.19,42.08-110.92,106-132.88,178" transform="translate(254.97 274.6)"/><path class="cls-69" d="M751.05,586.72c-64.75,28.69-146.25,17.63-216-8.52s-132.3-66-199.72-97S191.06,428.06,119.39,441.7c-60,11.41-109.23,46.69-149.08,86.54s-72.5,85.06-113.13,124.28c-23.38,22.58-56.49,44.6-91.17,35" transform="translate(254.97 274.6)"/><path class="cls-70" d="M-235.2,688.75c27.4,8.31,54.37-2.84,76.45-18.63a193,193,0,0,0,16.14-12.93c14-12.46,27.14-25.75,39.9-39.35,25.72-27.4,50-56.05,77.26-82.45,23.61-22.84,50.17-44.25,80.07-60.51A245,245,0,0,1,125.51,449c50.34-9.68,103.24-2.18,153.38,14.54a561.46,561.46,0,0,1,63.56,26c29.18,13.91,57.5,29.37,86.31,43.84,35.8,18,71.71,34.27,109,46.66,2,.66,4,1.31,6,1.94,69.59,22.22,149.23,29,211.47-2.09" transform="translate(254.97 274.6)"/><path class="cls-71" d="M-236.42,690c27.25,9,54.63-1,77.31-15.89a195.57,195.57,0,0,0,16.71-12.27,560,560,0,0,0,41.46-38.11c26.7-26.76,51.8-55,79.73-81.22,24.18-22.65,51.12-44,81.36-60.22a252.52,252.52,0,0,1,71.49-25.95c50.76-9.87,104.15-2.78,154.42,14.55A544,544,0,0,1,349.56,498c29.17,14.43,57.53,30.28,86.81,44.3,36.34,17.42,72.81,31.72,110.07,42,2,.54,4,1.08,5.94,1.6,69.44,18.29,147.21,20.81,207-12.71" transform="translate(254.97 274.6)"/><path class="cls-72" d="M-237.64,691.31c27.1,9.59,54.89.8,78.17-13.15a193.36,193.36,0,0,0,17.27-11.62,511.16,511.16,0,0,0,43-36.86c27.69-26.12,53.63-54,82.22-80C7.78,527.23,35.11,506,65.68,489.76a259.64,259.64,0,0,1,72.08-26.05c51.19-10.06,105.07-3.37,155.46,14.55,21.94,7.8,43.06,17.63,63.46,28.08,29.16,14.95,57.56,31.18,87.29,44.75a551.38,551.38,0,0,0,111.14,37.36q3,.66,5.94,1.27c69.28,14.36,145.19,12.61,202.42-23.33" transform="translate(254.97 274.6)"/><path class="cls-73" d="M-238.85,692.59c26.94,10.24,55.11,2.57,79-10.41a196.94,196.94,0,0,0,17.83-11A468.2,468.2,0,0,0-97.42,635.6c28.68-25.49,55.46-53,84.7-78.76,25.32-22.26,53-43.38,83.92-59.65A267.9,267.9,0,0,1,143.89,471c51.61-10.25,106-4,156.5,14.57,22,8.05,43,18.3,63.41,29.1,29.15,15.47,57.58,32.08,87.78,45.21a469.09,469.09,0,0,0,112.21,32.71c2,.32,4,.63,5.92.93C638.84,604,712.89,598,767.61,559.61" transform="translate(254.97 274.6)"/><path class="cls-74" d="M-240.07,693.87c26.8,10.88,55.36,4.38,79.89-7.67a201.35,201.35,0,0,0,18.4-10.32,439,439,0,0,0,46.13-34.35C-66,616.67-38.37,589.49-8.48,564c25.89-22.07,54-43.08,85.21-59.36A275.85,275.85,0,0,1,150,478.38c52-10.44,106.89-4.55,157.55,14.58,22,8.31,43,19,63.36,30.12,29.14,16,57.61,33,88.26,45.67,38,15.74,76.14,24.08,113.28,28.06q3,.32,5.92.59c69,6.5,141.15-3.79,193.37-44.57" transform="translate(254.97 274.6)"/><path class="cls-75" d="M-241.29,695.15c26.65,11.52,55.62,6.2,80.75-4.93a197.18,197.18,0,0,0,19-9.66c16.71-9.68,32.48-21.1,47.68-33.11,30.65-24.23,59.11-51,89.65-76.3,26.46-21.89,55-42.8,86.5-59.08a283.78,283.78,0,0,1,73.88-26.35c52.45-10.63,107.79-5.14,158.59,14.59,22.08,8.56,43,19.64,63.31,31.14,29.12,16.5,57.63,33.89,88.75,46.13C505.32,592.76,544,599.11,581.13,601c2,.09,3.94.18,5.91.25,68.82,2.57,139.14-12,188.85-55.19" transform="translate(254.97 274.6)"/><path class="cls-76" d="M-242.5,696.43c26.49,12.16,55.88,8,81.6-2.19a196.75,196.75,0,0,0,19.54-9c17.24-9.13,33.54-20.16,49.23-31.86,31.64-23.59,60.94-50,92.14-75.07,27-21.7,55.89-42.51,87.77-58.79a293.25,293.25,0,0,1,74.48-26.46,280.41,280.41,0,0,1,159.64,14.6c22.12,8.82,43,20.32,63.25,32.17,29.12,17,57.67,34.79,89.24,46.58,39.08,14.63,78.35,19,115.42,18.76,2,0,3.93,0,5.9-.08,68.66-1.36,137.11-20.19,184.32-65.81" transform="translate(254.97 274.6)"/><path class="cls-77" d="M-243.72,697.71c26.34,12.81,56.14,9.83,82.47.56a199.42,199.42,0,0,0,20.09-8.37c17.78-8.57,34.62-19.23,50.8-30.61,32.62-22.95,62.76-49,94.61-73.84C31.85,564,61.1,543.23,93.31,527a301.73,301.73,0,0,1,75.08-26.56A277.06,277.06,0,0,1,329.07,515c22.16,9.08,42.92,21,63.2,33.19,29.11,17.54,57.69,35.69,89.73,47,39.63,14.07,79.45,16.44,116.48,14.11,2-.13,3.93-.26,5.89-.41,68.52-5.3,135.1-28.39,179.8-76.43" transform="translate(254.97 274.6)"/><path class="cls-78" d="M-244.94,699c26.19,13.45,56.41,11.65,83.33,3.3a197,197,0,0,0,20.66-7.72c18.31-8,35.68-18.29,52.35-29.36C-55,642.89-24,617.2,8.49,592.6c28.17-21.31,57.81-41.93,90.35-58.21a310.83,310.83,0,0,1,75.67-26.66c53.73-11.2,110.53-6.92,161.73,14.62,22.21,9.33,42.9,21.66,63.15,34.21,29.09,18.06,57.71,36.6,90.22,47.5,40.17,13.51,80.55,13.89,117.55,9.46q2.94-.36,5.87-.75c68.37-9.23,133.09-36.59,175.28-87" transform="translate(254.97 274.6)"/><path class="cls-79" d="M-246.15,700.27c26,14.09,56.66,13.47,84.18,6a197.8,197.8,0,0,0,21.23-7.06c18.84-7.48,36.75-17.37,53.9-28.12,34.59-21.68,66.43-47,99.57-71.38,28.74-21.12,58.77-41.63,91.63-57.92a320.57,320.57,0,0,1,76.28-26.77c54.15-11.39,111.44-7.5,162.77,14.64,22.25,9.59,42.87,22.32,63.1,35.23,29.08,18.57,57.74,37.5,90.7,48,40.72,13,81.67,11.34,118.62,4.8q2.94-.53,5.87-1.08c68.21-13.16,131.06-44.79,170.76-97.67" transform="translate(254.97 274.6)"/><path class="cls-80" d="M-247.37,701.55c25.89,14.74,56.93,15.3,85.05,8.78a201.42,201.42,0,0,0,21.79-6.41c19.35-7,37.82-16.43,55.45-26.87,35.58-21,68.26-46,102.06-70.15,29.3-20.92,59.71-41.34,92.91-57.63a330.49,330.49,0,0,1,76.87-26.87c54.58-11.58,112.35-8.1,163.81,14.64,22.31,9.85,42.85,23,63.06,36.26,29.07,19.09,57.76,38.4,91.19,48.42,41.26,12.39,82.77,8.79,119.68.15,2-.46,3.92-.93,5.86-1.42,68.06-17.1,129-53,166.24-108.29" transform="translate(254.97 274.6)"/><path class="cls-81" d="M-248.59,702.83c25.74,15.38,57.2,17.12,85.91,11.52a199.92,199.92,0,0,0,22.35-5.76c19.89-6.41,38.89-15.5,57-25.62,36.56-20.41,70.08-45,104.53-68.91C51.1,593.32,81.89,573,115.42,556.7a340.82,340.82,0,0,1,77.47-27c55-11.77,113.26-8.69,164.85,14.65,22.35,10.1,42.82,23.67,63,37.28,29.05,19.61,57.79,39.3,91.67,48.87,41.82,11.84,83.88,6.25,120.76-4.49,2-.58,3.91-1.16,5.85-1.76,67.9-21,127-61.19,161.71-118.91" transform="translate(254.97 274.6)"/><path class="cls-82" d="M-249.8,704.11c25.58,16,57.45,18.95,86.76,14.26a198.82,198.82,0,0,0,22.92-5.11c20.42-5.86,40-14.57,58.57-24.37,37.55-19.77,71.91-44,107-67.68,30.45-20.55,61.63-40.77,95.49-57.07A351.92,351.92,0,0,1,199,537.07c55.42-12,114.17-9.28,165.89,14.67,22.4,10.36,42.79,24.34,62.95,38.3,29.05,20.13,57.82,40.21,92.17,49.33,42.36,11.28,85,3.7,121.82-9.15,2-.68,3.9-1.38,5.84-2.09,67.75-25,125-69.39,157.19-129.53" transform="translate(254.97 274.6)"/><path class="cls-83" d="M-251,705.39c25.43,16.66,57.73,20.83,87.63,17a197.76,197.76,0,0,0,23.48-4.45c21-5.31,41-13.64,60.12-23.13,38.54-19.14,73.74-43,109.5-66.45,31-20.35,62.58-40.48,96.76-56.78a362.75,362.75,0,0,1,78.67-27.17c55.85-12.15,115.08-9.87,166.94,14.68,22.44,10.61,42.77,25,62.9,39.32,29,20.65,57.85,41.11,92.65,49.79,42.91,10.71,86.09,1.15,122.9-13.8q2.93-1.2,5.83-2.43C724,603.08,779.35,554.38,809,491.83" transform="translate(254.97 274.6)"/><path class="cls-84" d="M-252.24,706.66c25.29,17.32,58,22.66,88.49,19.75a197.13,197.13,0,0,0,24.05-3.8c21.49-4.76,42.09-12.71,61.68-21.88,39.52-18.5,75.56-42,112-65.22C65.54,615.35,97.49,595.33,132,579a374.72,374.72,0,0,1,79.27-27.28c56.27-12.33,116-10.45,168,14.69,22.49,10.88,42.74,25.69,62.85,40.35,29,21.16,57.87,42,93.14,50.25,43.45,10.15,87.2-1.4,124-18.45q2.92-1.37,5.82-2.77C732.46,603,786,550,813.16,485.05" transform="translate(254.97 274.6)"/><path class="cls-85" d="M-253.46,707.94c25.14,18,58.26,24.48,89.35,22.49a198.88,198.88,0,0,0,24.62-3.15c22-4.21,43.15-11.77,63.23-20.63,40.51-17.87,77.39-41,114.45-64,32.16-20,64.49-39.89,99.34-56.2a385.69,385.69,0,0,1,79.86-27.38c56.7-12.52,116.9-11.05,169,14.7,22.53,11.13,42.71,26.36,62.8,41.37,29,21.68,57.89,42.92,93.62,50.7,44,9.6,88.31-3.94,125-23.1q2.93-1.53,5.82-3.1c67.28-36.75,118.95-94,143.61-161.38" transform="translate(254.97 274.6)"/><path class="cls-86" d="M-254.67,709.22c25,18.6,58.51,26.3,90.2,25.23s61.86-10.21,90-21.88C3,680.38,67.35,629,143.05,593.9s172.52-52.11,250.54-12.77c55.21,27.84,95.63,81.13,156.86,93.55,44.55,9,89.41-6.49,126.1-27.75,70.06-40.61,122.1-103.63,144.89-175.44" transform="translate(254.97 274.6)"/></g></g></g></g></g></svg>